<svg xmlns="http://www.w3.org/2000/svg" viewBox="0 0 200 200" fill="none">
  <g transform="translate(100,100)">
    <g stroke="currentColor" stroke-width="1.2" fill="none" opacity="0.95">
      <path d="M0 -80 L18 -42 L60 -42 L60 0 L42 18 L42 60 L0 60 L-18 42 L-60 42 L-60 0 L-42 -18 L-42 -60 L0 -60 Z" transform="rotate(0)"/>
      <path d="M0 -80 L18 -42 L60 -42 L60 0 L42 18 L42 60 L0 60 L-18 42 L-60 42 L-60 0 L-42 -18 L-42 -60 L0 -60 Z" transform="rotate(45)"/>
    </g>
    <circle cx="0" cy="0" r="14" stroke="currentColor" stroke-width="1.2" fill="none"/>
    <circle cx="0" cy="0" r="5" fill="currentColor"/>
    <g stroke="currentColor" stroke-width="0.8" opacity="0.55">
      <line x1="-80" y1="0" x2="80" y2="0"/>
      <line x1="0" y1="-80" x2="0" y2="80"/>
      <line x1="-56" y1="-56" x2="56" y2="56"/>
      <line x1="-56" y1="56" x2="56" y2="-56"/>
    </g>
  </g>
</svg>
