<svg xmlns="http://www.w3.org/2000/svg" viewBox="0 0 240 56" fill="none">
  <rect width="240" height="56" fill="#fbf5e9"/>
  <g transform="translate(0,28)">
    <g transform="translate(20,0)">
      <path d="M-12 0 L0 -12 L12 0 L0 12 Z" fill="#00a376" opacity="0.9"/>
      <path d="M-6 0 L0 -6 L6 0 L0 6 Z" fill="#fbf5e9"/>
      <circle cx="0" cy="0" r="1.6" fill="#00a376"/>
    </g>
    <g transform="translate(80,0)">
      <path d="M-12 0 L0 -12 L12 0 L0 12 Z" fill="#00a376" opacity="0.9"/>
      <path d="M-6 0 L0 -6 L6 0 L0 6 Z" fill="#fbf5e9"/>
      <circle cx="0" cy="0" r="1.6" fill="#00a376"/>
    </g>
    <g transform="translate(140,0)">
      <path d="M-12 0 L0 -12 L12 0 L0 12 Z" fill="#00a376" opacity="0.9"/>
      <path d="M-6 0 L0 -6 L6 0 L0 6 Z" fill="#fbf5e9"/>
      <circle cx="0" cy="0" r="1.6" fill="#00a376"/>
    </g>
    <g transform="translate(200,0)">
      <path d="M-12 0 L0 -12 L12 0 L0 12 Z" fill="#00a376" opacity="0.9"/>
      <path d="M-6 0 L0 -6 L6 0 L0 6 Z" fill="#fbf5e9"/>
      <circle cx="0" cy="0" r="1.6" fill="#00a376"/>
    </g>
    <g transform="translate(50,0)" opacity="0.85">
      <circle cx="0" cy="0" r="6" fill="none" stroke="#2c6aa3" stroke-width="1.4"/>
      <circle cx="0" cy="0" r="2" fill="#2c6aa3"/>
    </g>
    <g transform="translate(110,0)" opacity="0.85">
      <circle cx="0" cy="0" r="6" fill="none" stroke="#2c6aa3" stroke-width="1.4"/>
      <circle cx="0" cy="0" r="2" fill="#2c6aa3"/>
    </g>
    <g transform="translate(170,0)" opacity="0.85">
      <circle cx="0" cy="0" r="6" fill="none" stroke="#2c6aa3" stroke-width="1.4"/>
      <circle cx="0" cy="0" r="2" fill="#2c6aa3"/>
    </g>
    <g transform="translate(230,0)" opacity="0.85">
      <circle cx="0" cy="0" r="6" fill="none" stroke="#2c6aa3" stroke-width="1.4"/>
      <circle cx="0" cy="0" r="2" fill="#2c6aa3"/>
    </g>
    <line x1="0" y1="-22" x2="240" y2="-22" stroke="#00a376" stroke-width="1" opacity="0.55"/>
    <line x1="0" y1="22" x2="240" y2="22" stroke="#00a376" stroke-width="1" opacity="0.55"/>
  </g>
</svg>
