<svg xmlns="http://www.w3.org/2000/svg" viewBox="0 0 64 80" fill="none">
  <path d="M32 8 C32 8 30 4 32 2 C34 4 32 8 32 8 Z M28 8 L36 8" stroke="currentColor" stroke-width="2" stroke-linecap="round"/>
  <path d="M32 10 C18 10 10 22 10 38 C10 56 20 74 32 74 C44 74 54 56 54 38 C54 22 46 10 32 10 Z" stroke="currentColor" stroke-width="2.4" fill="none"/>
  <path d="M22 30 L26 34 M42 30 L38 34 M20 44 L24 48 M44 44 L40 48 M30 24 L34 28 M30 54 L34 58 M28 40 L32 44 L36 40" stroke="currentColor" stroke-width="1.6" stroke-linecap="round" opacity="0.55"/>
  <circle cx="22" cy="40" r="2" fill="currentColor" opacity="0.7"/>
  <circle cx="42" cy="40" r="2" fill="currentColor" opacity="0.7"/>
  <circle cx="32" cy="52" r="2" fill="currentColor" opacity="0.7"/>
  <circle cx="28" cy="32" r="1.6" fill="currentColor" opacity="0.7"/>
  <circle cx="36" cy="32" r="1.6" fill="currentColor" opacity="0.7"/>
</svg>
