<svg xmlns="http://www.w3.org/2000/svg" viewBox="0 0 180 60" fill="none">
  <path d="M2 30 Q40 8 90 30 Q140 52 178 30" stroke="currentColor" stroke-width="1.4" stroke-linecap="round" opacity="0.55"/>
  <ellipse cx="20" cy="22" rx="9" ry="4" transform="rotate(-22 20 22)" fill="currentColor" opacity="0.85"/>
  <ellipse cx="42" cy="16" rx="10" ry="4" transform="rotate(-12 42 16)" fill="currentColor" opacity="0.85"/>
  <ellipse cx="66" cy="14" rx="11" ry="4" transform="rotate(-2 66 14)" fill="currentColor"/>
  <ellipse cx="90" cy="18" rx="11" ry="4" transform="rotate(8 90 18)" fill="currentColor" opacity="0.9"/>
  <ellipse cx="114" cy="28" rx="11" ry="4" transform="rotate(18 114 28)" fill="currentColor"/>
  <ellipse cx="138" cy="40" rx="10" ry="4" transform="rotate(28 138 40)" fill="currentColor" opacity="0.85"/>
  <ellipse cx="160" cy="46" rx="9" ry="4" transform="rotate(36 160 46)" fill="currentColor" opacity="0.8"/>
  <ellipse cx="28" cy="38" rx="8" ry="4" transform="rotate(20 28 38)" fill="currentColor" opacity="0.7"/>
  <ellipse cx="52" cy="42" rx="9" ry="4" transform="rotate(28 52 42)" fill="currentColor" opacity="0.7"/>
  <ellipse cx="76" cy="44" rx="10" ry="4" transform="rotate(34 76 44)" fill="currentColor" opacity="0.7"/>
  <ellipse cx="102" cy="42" rx="10" ry="4" transform="rotate(38 102 42)" fill="currentColor" opacity="0.7"/>
  <ellipse cx="126" cy="40" rx="10" ry="4" transform="rotate(42 126 40)" fill="currentColor" opacity="0.7"/>
  <ellipse cx="148" cy="36" rx="9" ry="4" transform="rotate(44 148 36)" fill="currentColor" opacity="0.7"/>
  <circle cx="22" cy="30" r="1.5" fill="currentColor"/>
  <circle cx="60" cy="28" r="1.5" fill="currentColor"/>
  <circle cx="100" cy="32" r="1.5" fill="currentColor"/>
  <circle cx="142" cy="34" r="1.5" fill="currentColor"/>
</svg>
