<?xml version="1.0" encoding="UTF-8"?>
<svg id="Layer_2" data-name="Layer 2" xmlns="http://www.w3.org/2000/svg" viewBox="0 0 189.27 154.73">
  <defs>
    <style>
      .cls-1 {
        fill: #00a376;
        fill-rule: evenodd;
      }
    </style>
  </defs>
  <g id="Layer_1-2" data-name="Layer 1">
    <path class="cls-1" d="M184.1,131.24c-9.61,2.2-15.12,8.34-18.95,15.17-.13,2.39-1.47,4.87-.72,7.69-8.71,3.96-10.8-11.87-9.36-17.31-5.17,1.12-10.03,3.25-13.23,3.29-.86.47-2.74,2.11-3.78.73,1.41-2.44,5.2-2.77,4.88-6.05-1.73,0-2.97-.45-5.68.65-.95-.09-1.11-2.12-2.16-1.97-6.88-.14-12.64-2.99-20.52-.69-4.66-.5-9.05-1.65-13.89-1.73-2.74-1.67-6.21-1.53-8.5-4.29-1.11.21-.76,1.07-1.61.65-13.31-1.94-19.66,4.23-16.91,9.13,4.2,7.43,16.19-4.47,25.58-3.29,1.13-.21,1.42-.84,2.14-1.26,1.77,1.37,4.81-.32,6.42,1.49-10.36,4.44-16.48,8.23-25.15,13.95-9.69,6.39-20.24-1.63-21.97-9.02-.09-8.89,3.5-11.3,13.11-13.59,3.53-.84,7.47-.23,10.01-1.99-3.28-2.97-6.88-5.17-10.8-6.61-.43-1.61-1.56-1.46-2.09-2.81-8.91-3.88-19.74-19.35-31.9-11.12-1.29.87-2.89,2.8-2.64,5.11,3.87,1.41,8.98,1.31,14.45,2.32,4.03.74,13.05,1.96,13.68,7.48-4.07,3.16-7.21.92-10.82.69-1.67-.11-3.58.56-5.35.52-2.13-.06-3.87-.13-5.73-.54-28.39-6.36-17.19-18.17-13.69-21.24,5.34-4.7,10.34-2.16,15.75-3.48-3.06-4.64-5.7-6.86-8.88-10.61-1.79-2.13-3.19-5.41-4.87-6.56-2.32-1.58-5.46-.89-8.23-.35-4.69.92-8.18-.14-12.31-3.58C2.84,65.69-1.41,58.46.42,50.9c.66-2.79,3.08-5.73,4.93-8.05,2.01-2.52,6.32-5.41,7.46-9.09,1.26-4.05.39-11.28-.82-16.24C10.29,10.54,3.23,6.59,4.37,3.14c.57-.54.86-1.38,2.03-.81C14.44,6.2,13.19-.92,17.69.1c2.15.48,2.75,4.13,4.75,5.12,2.59.63,8.21-3.2,9.21-.03.82,2.63-8.39,15.15-3.28,25.08,2.16,4.85,19.43,5.04,22.72,18.97,2.6,10.96-5.05,19.78-14.02,24.24,3.26,7.18,11.42,18.7,16.77,20.8-4.39-9.89-3.58-22.58,5.88-26.55,6-2.52,15.64-3.92,17.48,3.45-3.01,6.14-7.74.58-9.48,1.46-21.09,10.56,12.27,41.29,18.55,43.51,2.78-1.72,3.06,1.4,5.43.67-.68-1.02-.19-1.47.02-2.04-1.92-1.87-4.6-5.79-1.46-6.22,3.11,3.08,4.46,5.32,5.48,9.48,1.55,1.04,2.54,1.57,3.69.08.91-2.65-.93-3.14-2.45-3.85-.8-1.64-1.15-3.48-1.65-5.12-.5-1.65-1.15-3.11-1.7-4.31-1.04-2.28-2.56-3.2-3.39-6.88-1.81.36-.76,2.16-1.97,2.81-.88-.72-2.3-.1-3.4-.25-3.58-5.4,3.31-12.28,8.62-14.38,5.67-2.24,10.65.82,12.8,4.99-7.13.1-8.68,2.76-8.94,8-.05.96,1.12,2.78,1.04,3.86-.33,4.18,4.37,10.76,7.19,13.53.45,2.18-2.25,2.76-2.44,4.63,1.16,1.77,3.06,1.76,3.99,4.06,8.01.71,15.47,6.19,23.84,3.82-2.72-5.31-8.97-5.34-11.56-11.98-.5-1.28-1.14-4.55-.81-6.56.07-.46,1.28-1.15,1.44-2.2,1.18-7.44,11.98-11.88,19.44-9.81-.68,4.74-5.52,7.27-4.09,12.57.56,2.1,2.56,3.01,3.2,6.01,5.57,5.08,12.05,7.95,18.53,10.8,9.41,2.64,9.48-2.5,11.14-.82-3.63-3.04-6-8.73-10.31-8.42-3.89-2.19-6.94-4.49-6.09-12.14,1.86-6.77,11.48-9.57,16.02-4.79-.05,2.27-3.03,3.76-3.31,6.07-.81,6.86,7.44,18.43,11.48,19.42,3.52-.64,4.42-2.51,6.88-1.44.06-1.73,3.66-1.69,5.39-1.44,0,0,3.96,5.08-4.21,6.95ZM18.5,61.47c4.67-.3,4.72-5.4,6.79-7.98-.39-1.44-1.76-.53-2.16-1.98.08-1.93,1-1.82,2.46-1.39.6,1.38-.12,2.09.47,3.46,3.82.79,4.48-3.6,6.57-5.47,1.81.41,3.59-.61,4.4-2.16-1.07-2.88-2.64-4.54-5.09-4.03-.53,2.16,1.07,5.42-1.37,6.62-2.53-.88-6.24,1.17-7.36-3.13,1.26-2.27,2.32-4.93,5.92-5.21.24-1.03-1.34-2.09-2.09-2.81-3.47,5.09-11.89,6.39-10.58,11.93.47,2,3.48,2.84,4.05,5.26.64,2.72-3.26,4.18-2.01,6.88ZM32.88,54.09c-1.47,5.32-8.04,9.92-13.11,8.9.94,2.75,2.58,3.81,4.65,3.82,1.62-1.01,2.27-4.72,4.67-3.5,1.38-2.83,4.92-5.45,8.24-4.92.97-1.18,2.09-2.26,1.92-4.01-1.42-1.81-3.7-1.52-6.37-.29ZM26.73,67.09c-.29.69.67,1.71,1.19,2.36,1.19.11,2.22-.82,1.32-2.55-.75-.15-1.68.15-2.51.19ZM132.29,121.2c-.56.11-.44.56-.85.74,4.19,3.64,9.26,8.57,14.65,7.1-3.94-4.22-9.84-3.68-13.81-7.84Z"/>
  </g>
</svg>