<?xml version="1.0" encoding="UTF-8"?>
<svg id="Capa_1" data-name="Capa 1" xmlns="http://www.w3.org/2000/svg" viewBox="0 0 478.37 224.91">
  <defs>
    <style>
      .cls-1 {
        fill-rule: evenodd;
      }

      .cls-1, .cls-2 {
        fill: #fff;
      }
    </style>
  </defs>
  <path class="cls-1" d="M202.52,161.41c-4.28-3.62-8.75,3.31-12.69,5.48-2.31,1.27-23.56,7.97-23.55,21.56.21,2.63.23,7.51,6.75,6.08.94-.21,5.66-1.05,3.37-8.51-1.53-5.02,8.85-11.19,14.47-14.04,4.96-2.52,6.53-4.38,8.89-8.23.45-.91,2.23-1.43,2.77-2.33Z"/>
  <path class="cls-1" d="M228.77,153.55c-8.25,5.39-11.29,13.07-12.52,20.8.71,2.28.31,5.08,1.99,7.46-6.8,6.74-14.25-7.39-14.78-13-4.46,2.84-8.28,6.53-11.27,7.67-.64.74-1.84,2.92-3.29,2,.47-2.78,3.92-4.4,2.48-7.36-1.62.59-2.94.61-5.1,2.58-.92.24-1.77-1.61-2.71-1.1-6.5,2.25-12.9,1.58-19.49,6.46-4.55,1.15-9.06,1.59-13.63,3.19-3.15-.62-6.36.71-9.46-1.08-.97.58-.35,1.26-1.29,1.17-13.16,2.79-16.97,10.78-12.7,14.42,6.51,5.52,13.63-9.8,22.86-11.95.99-.59,1.04-1.28,1.57-1.93,2.14.67,4.4-1.96,6.53-.83-8.18,7.75-12.61,13.43-18.75,21.8-6.88,9.36-19.55,5.49-23.74-.85-3.17-8.31-.63-11.82,7.59-17.29,3.02-2.01,6.93-2.8,8.7-5.33-4.1-1.65-8.25-2.46-12.42-2.46-.96-1.36-1.97-.83-2.94-1.91-9.7-.55-25.22-11.32-33.78.62-.91,1.27-1.74,3.63-.71,5.7,4.12-.02,8.88-1.88,14.36-2.83,4.04-.71,12.92-2.68,15.43,2.28-2.72,4.38-6.45,3.36-9.91,4.4-1.6.47-3.16,1.77-4.84,2.34-2.02.68-3.68,1.22-5.56,1.48-28.84,3.87-22.42-11.09-20.2-15.18,3.38-6.26,8.95-5.61,13.57-8.72-4.48-3.3-7.72-4.46-12-6.88-2.42-1.38-4.87-3.97-6.84-4.46-2.73-.68-5.43,1.06-7.84,2.52-4.08,2.48-7.72,2.7-12.79.91-9.26-3.31-15.75-8.63-16.66-16.36-.34-2.85.91-6.44,1.83-9.26,1.01-3.06,4.06-7.26,3.84-11.11-.22-4.24-3.55-10.72-6.4-14.95-4.01-5.96-12-7.21-12.12-10.84.35-.7.33-1.6,1.62-1.47,8.88.85,5.24-5.4,9.81-5.99,2.18-.29,4.01,2.92,6.23,3.15,2.65-.31,6.59-5.85,8.63-3.22,1.68,2.18-2.62,17.12,5.62,24.66,3.71,3.8,19.97-2,27.88,9.92,6.23,9.38,2.11,20.31-4.75,27.6,5.54,5.61,17.19,13.58,22.94,13.7-7.54-7.76-11.18-19.94-3.69-26.94,4.75-4.44,13.31-9.1,17.59-2.82-.69,6.8-7.06,3.23-8.39,4.65-16.13,17.21,25.81,34.48,32.48,34.39,2.01-2.58,3.35.25,5.32-1.26-.99-.73-.69-1.31-.68-1.92-2.45-1.09-6.33-3.84-3.52-5.33,3.98,1.81,6.03,3.45,8.43,6.99,1.82.43,2.93.59,3.49-1.2-.06-2.8-1.96-2.62-3.64-2.76-1.32-1.26-2.28-2.86-3.32-4.23-1.04-1.37-2.15-2.52-3.09-3.46-1.77-1.78-3.51-2.11-5.57-5.28-1.57.97.04,2.29-.87,3.32-1.07-.37-2.19.7-3.28.94-5.23-3.83-1.15-12.67,3.1-16.48,4.55-4.06,10.28-2.92,13.74.25-6.65,2.57-7.19,5.59-5.61,10.61.29.92,2.01,2.22,2.31,3.26,1.13,4.03,7.82,8.58,11.44,10.2,1.18,1.89-1.15,3.37-.68,5.19,1.7,1.26,3.48.59,5.15,2.43,7.76-2.11,16.66.45,23.69-4.67-4.39-4.04-10.26-1.9-15-7.23-.91-1.03-2.65-3.87-3.03-5.87-.09-.46.8-1.53.59-2.56-1.47-7.39,7.12-15.3,14.84-15.94,1.01,4.68-2.65,8.73.52,13.21,1.26,1.77,3.44,1.93,5.08,4.53,6.98,2.84,14.06,3.28,21.13,3.71,9.74-.78,8.03-5.63,10.17-4.63-4.45-1.59-8.65-6.11-12.59-4.32-4.41-.71-8.07-1.81-9.92-9.28-.6-7,7.46-12.95,13.37-10.05.74,2.15-1.54,4.58-1,6.84,1.61,6.71,13.36,14.71,17.49,14.24,3.08-1.82,3.28-3.88,5.96-3.73-.55-1.64,2.85-2.85,4.55-3.22,0,0,5.48,3.39-1.55,7.98ZM49.26,145.49c4.28-1.9,2.55-6.7,3.6-9.84-.87-1.21-1.84.11-2.71-1.11-.59-1.84.3-2.06,1.83-2.16,1.04,1.09.61,2,1.64,3.08,3.86-.58,2.96-4.93,4.27-7.41,1.84-.24,3.15-1.82,3.38-3.56-2-2.33-4.05-3.35-6.18-2.02.26,2.21,2.88,4.71,1.01,6.69-2.67.05-5.45,3.26-7.99-.38.39-2.57.47-5.43,3.75-6.94-.14-1.05-1.98-1.49-2.93-1.91-1.49,5.98-8.94,10.11-5.79,14.86,1.14,1.71,4.25,1.46,5.62,3.53,1.55,2.33-1.61,5.05.49,7.15ZM60.19,133.58c.46,5.5-4.1,12.09-9.22,12.89,1.84,2.25,3.74,2.68,5.69,1.97,1.17-1.51.5-5.21,3.17-4.9.31-3.13,2.72-6.81,6.03-7.47.5-1.44,1.18-2.85.41-4.42-1.96-1.21-4-.15-6.08,1.94ZM58.92,147.9c-.03.74,1.22,1.37,1.93,1.8,1.15-.31,1.8-1.54.36-2.85-.76.12-1.53.72-2.29,1.05ZM176.69,162.09c-.48.3-.22.67-.54.99,5.19,1.96,11.66,4.83,16.21,1.58-5.16-2.59-10.5-.04-15.67-2.57Z"/>
  <path class="cls-1" d="M272,19.37c1.21,8.26,1.04,17.91,1.72,26.7-2.86-1.01-4.85-2.89-8.18-3.45.17-4.76-.76-8.42-.43-13.35-2.17,3.71-3.61,8.15-5.17,12.49,4.58,2.72,11.31,4.15,15.5,7.32,3.62,2.74,7.35,8.98,3.45,14.64-.85,1.22-3.65,3.3-5.6,3.88-4.69,1.38-12.97,1.27-14.64-4.3,1.81,2.55,4.47,4.2,8.61,4.3,11.22.3,17.13-12.33,6.45-18.52-3.16,2.58-4.24,7.24-7.74,9.47.26-4.86-.34-8.84-.43-13.35-1.45-1.27-3.94-1.51-5.6-2.58-2.84,4.47-4.07,10.56-6.46,15.5-2.29.87-4.79,1.53-8.18,1.3,5.92-4.13,10.13-9.97,12.92-17.22-4.76-3.05-11.73-4.22-12.49-10.33-1.38-11.17,13.23-13.24,26.26-12.49ZM249.18,24.54c-5.68,6.23.04,12.22,4.31,14.64,1.23.7,4.55,2.59,5.03,2.22.63-.49.57-1.13.88-1.5-.99-1.05-2.57-1.24-4.19-2.44-2.64-1.96-5.6-5.37-1.72-8.18-2.95,5.32,2.43,8.56,6.57,9.56,1.75-5.57,5.97-16.34,4.62-16.88-4.61-3.41-12.64-.55-15.5,2.59Z"/>
  <path class="cls-1" d="M301.28,19.37c-4.32,12.93-12.26,24.44-11.62,40.9-16.14-2.81-2.25-23.16,0-33.15-4.73,4.22-9.38,12.55-13.78,18.51-1.89-7.44-.85-17.8-2.16-25.83,1.27.18,1.18,1.49,1.3,2.15,1.03,6.02-.05,14.41.86,21.1,6.02-5.73,11.31-16.38,17.65-23.25,1.81-.91,5.24-.21,7.75-.43Z"/>
  <path class="cls-1" d="M358.97,28.41c-.85,3.31-4.38,3.94-8.18,4.31.82-3.26,5.34-8.35,8.18-4.31Z"/>
  <path class="cls-1" d="M365,34.87c12.4-.5,2.34,15.22.86,21.96-2.65.08-5.83-.38-6.89,1.29.58-7.17,6.88-14.65,6.03-23.25Z"/>
  <path class="cls-1" d="M345.19,57.26c-.61-6.98,1.96-14.36,6.03-18.09-2.72,4.42-6.98,11.54-4.74,18.09,3.12-.91,4.87-5.25,6.03-8.61,1.2-3.5,2.75-7.9,1.29-11.2-7.71.02-10.75,11.68-9.9,19.81-3.97.87-5.99-2.24-6.46-4.31-2.52-11.06,11.2-19.39,19.38-15.5,2.36,1.13,4.02,4.35,3.44,9.04-.84,6.9-7.44,13.77-15.07,10.76Z"/>
  <path class="cls-1" d="M305.58,37.02c.57.25-.11.39-1.04,2.11-1.58,3.36-7.55,14.75-2.4,17.69,3.36,1.92,7.68-2.08,8.61-6.46.79-2.08,3.09-1.65,3.44,0-.73,7.21-11.82,9.5-17.23,6.03-7.9-5.07-.46-20.66,8.61-19.37Z"/>
  <path class="cls-1" d="M384.38,38.75c2.08,4.76-5.65,12.25-3.44,20.67-13.15-.51-.85-19.02-3.44-20.67-4.37-.35-5.03,4.73-6.03,7.75-1.21,3.67-1.95,7.46-3.44,10.33.39-5.5,3.1-11.26,5.16-17.66,1.8-3.88,8.68-3.76,11.2-.43Z"/>
  <path class="cls-1" d="M325.39,37.45c1.67.27-.61,2.45.43,3.87,1.55,5.56,8,5.04,7.32,11.2-.73,6.52-18.42,7.85-18.94,1.72-.33-3.75,4.01-4.9,8.18-5.17-.67,2.49-3.36,5.57-1.3,8.18,5.08.31,4.89-3.34,4.74-4.74-.43-4.06-6.83-6.23-6.46-10.33.22-2.51,2.37-4.22,6.03-4.74Z"/>
  <path class="cls-1" d="M327.11,38.75c1.28-2.99,8.37-2.66,10.76-.86.62,4.35-2.58,4.88-6.46,4.74,0-1.87,1.33-2.4.86-4.74-2.52-1.2-3.92.05-4.3,1.72-1.01,4.44,14.7,11.81,4.73,17.22-.19-1.3,1.87-1.88,2.15-3.44,1.18-6.54-8.12-6.9-7.75-14.64Z"/>
  <path class="cls-1" d="M308.6,37.02c13.84-2.14,5.45,14.55-5.6,12.48-.55,1.94-.26,8.24-.86,3.88-.94-6.76,4.92-16.07,6.46-16.36ZM308.6,38.31c-2.61,2.99-4.69,5.65-5.6,10.33,6.04.02,6.66-5.39,7.75-10.33-.29-.51-1.07-.86-2.15,0Z"/>
  <path class="cls-1" d="M254.74,15.31c8.29,9.54-11.19,33.58-27.8,37.73-7.56,22.23-17.8,39.79-19.86,67.51-1.92-15.39,4.79-33.78,12.52-54.61,8.14-21.91,14-41.47,29.18-50.64,3.66-2.21,4.97-.95,5.96,0ZM227.93,51.05c14.65-4.58,29.54-24.32,24.82-32.76-10.8-3.21-17.34,20.39-24.82,32.76Z"/>
  <path class="cls-1" d="M239.84,16.3c1.63,0-1.28,3-1.98,3.97-17.79,24.51-28.05,63.24-35.74,98.29-18.26-7.24-10.33-30.38-.99-54.61,8.34-21.64,17.88-42.14,38.72-47.66Z"/>
  <path class="cls-1" d="M413.59,44.11c0,6.83-10.23,8.97-18.86,9.93,1.9-7.13,17.96-19.65,18.86-9.93Z"/>
  <path class="cls-1" d="M150.49,59.99c-9.73,25.35-13.77,56.39-50.63,54.61.14-4.58,5.95-5.83,8.94-8.93,11.77-12.27,16.8-33.09,24.82-49.64-19.1-7.77-48.49,6.23-44.68,25.82,1.5,7.69,12.4,11.66,22.84,6.95-9.68,8.54-27.31,2.74-24.82-13.9,3.46-23.18,44.68-28.37,63.54-14.89Z"/>
  <path class="cls-1" d="M335.16,59c29.07-1.51,4.72,35.46,1.99,50.64-6.66-.37-12.49.09-16.88,1.98,4.61-17.24,15.85-33.13,14.89-52.62Z"/>
  <path class="cls-1" d="M402.67,62.97c-1.61,15.01-15.71,31.18-12.9,50.64-28.97-2.18-5.95-34.56-2.98-48.65,5.22,1.52,11.74.34,15.89-1.99Z"/>
  <path class="cls-1" d="M246.79,63.96c4.39.13-30.62,31.89-7.95,45.67,7.63,4.63,20.28-3.51,19.86-14.89h7.94c-1.68,16.61-27.27,21.91-39.71,13.9-18.21-11.71-1.07-47.64,19.85-44.68Z"/>
  <path class="cls-1" d="M378.84,68.93c1.02,4.17-5.43,12.44-5.96,20.85-6.5-.12-10.56-2.68-12.9-6.95.12-5.5,5.96-9.59,2.98-13.9-7.15-.59-10.62,11.23-12.91,17.87-2.73,7.93-4.96,22.84-7.94,22.84.76-12.49,7.76-25.6,11.91-39.71,6.45-10.97,20.7-9.94,24.82-.99Z"/>
  <path class="cls-1" d="M437.42,63.96c5.88.58-1.84,15.17-4.97,23.83-4.98,13.82-11.09,31.94-27.8,21.84-12.52-12.32,7.56-30.15,26.8-27.8,3.29-3.66,7.71-15.04,4.97-15.88-6.97-1.81-8.29,6.93-9.93,12.9-6.35.06-13.4.82-14.89-3.97,1.02-11.23,14.16-13.17,25.81-10.92ZM417.56,107.65c7.78,1.06,8.87-16.38,14.28-24.21-13.03-.74-23.38,21.06-14.28,24.21Z"/>
  <path class="cls-1" d="M455.5,70.87c1.02,2.81.46,4.84-.21,7.99-3.11,10.08-12.67,23.35-6.95,35.74-6.41,2.42-15.56,2.81-17.87-5.96-.34-17.55,14.89-26.81,11.91-43.69,4.08-2.15,11.59,2.65,13.12,5.91Z"/>
  <path class="cls-1" d="M153.47,62.97c5.71-.55,10.67,6.87,13.9,12.91,2.2-9.3-7.54-15.43-15.89-19.86-12.57-6.67-29.33-10.04-45.67-5.96,6.22-5.04,21.61-2.76,30.78-1.99,7.71-11.15,16.28-21.44,32.76-23.82,3.14,1.31-1.81,4.46-2.98,5.96-4.67,5.97-10.76,15.04-12.91,23.83,5.18,4.97,12.5,7.35,14.89,14.89,6.96-12.24,11.31-27.08,14.89-42.69-16.24,1.63-17.11,18.63-25.81,27.8,6.62-17.57,16.72-36.87,43.68-30.78-1.99,33.99-26.88,57.9-16.88,94.32-14.52-1.43-21.89-7.14-22.84-19.86-.51-6.93,4.68-13.18,3.97-19.86-.7-6.65-6.56-9.51-9.93-12.91-6.91,15.92-11.16,34.51-23.83,44.68,7.65-11.22,17.92-28.42,21.84-46.67Z"/>
  <path class="cls-1" d="M408.63,59.99c-1.22,16.66-16.36,33.28-13.9,53.61-3.08,1.92-2.07-7.71-1.99-8.94,1-14.29,12.83-31.55,15.89-44.68Z"/>
  <path class="cls-1" d="M288.5,120.56c-15.23,1.01-24.76,17.11-19.86,31.77,16.4,4.68,23.09-24.69,27.8-38.72,6.28-18.7,11.27-35.06,15.89-47.65,6.3.01,12.59.02,15.89-2.98.72,6.71-4.37,13.44-6.95,20.85-6.43,18.48-11.66,49.05-24.82,61.55-8.87,8.43-42.39,16.12-44.67-1.98-2.24-17.69,20.72-22.37,36.74-24.82,2.42-2.22,2.78-6.48,3.97-9.93-10.33,5.43-23.69,3.04-21.84-15.88,1.72-17.58,19.95-34.28,38.72-27.8-11.28,25.46-16.71,56.76-29.79,80.42,1.05-6.24,6.94-16.22,8.94-24.82ZM285.52,107.65c10.69.44,10.51-11.62,12.91-18.87,2.7-8.15,6.43-16.24,8.94-22.83-16.52-1.51-22.98,29.7-21.84,41.7Z"/>
  <path class="cls-1" d="M253.74,64.57c25.07-10.18,11.36,32.96-14.13,28.18-1.27,4.49-.59,19-1.98,8.94-2.16-15.57,9.02-31.74,16.11-37.12ZM253.75,66.64c-6.02,6.89-10.8,13.33-12.91,24.13,13.95.05,19.99-20.93,17.87-23.83-.18-1.5-2.46-2.04-4.96-.3Z"/>
  <g>
    <path class="cls-2" d="M366.28,135.09c-.31.13-.66.23-1.03.27-.38.05-.72.05-1.03.01-.31-.04-.52-.13-.65-.27-.12-.14-.09-.34.1-.62.21-.33.44-.66.67-.97.23-.32.24-.57.03-.77-.63.24-1.24.65-1.84,1.23-.59.59-1.13,1.24-1.62,1.97-.49.72-.9,1.49-1.23,2.29-.34.8-.56,1.55-.67,2.24-.11.69-.07,1.29.12,1.79.19.5.54.81,1.08.92.59.14,1.34-.01,2.25-.47.91-.46,1.89-1.09,2.93-1.9s2.11-1.75,3.17-2.81c1.07-1.06,2.06-2.14,3-3.24.38-.46.73-.74,1.03-.84.3-.1.53-.11.68-.01.15.09.21.28.18.56-.03.28-.18.58-.45.92-.88,1.1-1.88,2.27-3.02,3.52-1.14,1.25-2.33,2.42-3.55,3.49-1.22,1.07-2.45,1.97-3.68,2.71-1.23.74-2.35,1.13-3.37,1.18-1.54.08-2.65-.24-3.33-.96-.68-.72-1.01-1.66-1-2.81s.33-2.41.96-3.76c.63-1.36,1.48-2.64,2.57-3.85,1.09-1.21,2.35-2.23,3.79-3.06,1.44-.83,3-1.29,4.69-1.38.81-.04,1.46.06,1.94.31.48.25.54.78.17,1.58-.24.48-.61.99-1.12,1.52-.51.54-1.09.94-1.75,1.21Z"/>
    <path class="cls-2" d="M382.51,130.65c.49.5.79,1.14.89,1.94.1.8,0,1.68-.3,2.66-.3.98-.77,1.99-1.41,3.04-.64,1.05-1.45,2.07-2.42,3.05-.94.98-1.92,1.81-2.95,2.49-1.03.68-2.01,1.18-2.96,1.51-.94.33-1.82.47-2.64.42-.82-.04-1.47-.32-1.96-.81-.52-.5-.83-1.14-.91-1.94-.09-.8.02-1.68.32-2.66.3-.98.76-1.99,1.39-3.04s1.43-2.07,2.39-3.05c.94-1.01,1.92-1.85,2.95-2.54s2.02-1.18,2.98-1.51c.96-.33,1.84-.46,2.64-.4.8.06,1.47.34,1.99.83ZM378.52,138.55c.51-.75.94-1.49,1.28-2.21.34-.72.58-1.38.72-2,.14-.62.18-1.15.11-1.6-.07-.45-.24-.77-.51-.96-.3-.19-.67-.23-1.12-.12-.45.11-.93.36-1.45.73-.52.38-1.06.86-1.63,1.44-.57.58-1.11,1.25-1.62,2.01-.51.76-.93,1.49-1.26,2.21-.33.72-.56,1.38-.7,1.98-.14.6-.18,1.13-.11,1.58.07.45.24.77.51.96.3.19.67.23,1.12.12s.93-.35,1.45-.71c.52-.36,1.05-.83,1.61-1.42.55-.58,1.08-1.25,1.6-2.01Z"/>
    <path class="cls-2" d="M397.23,129c.75-.16,1.37-.16,1.88-.01.5.15.78.5.84,1.07.06.56-.15,1.38-.63,2.44-.48,1.06-1.33,2.44-2.56,4.13-.63.82-1.08,1.5-1.35,2.04s-.46.96-.54,1.27c-.08.31-.1.52-.03.64.06.11.15.18.27.2.29.07.77-.14,1.43-.64.66-.5,1.38-1.15,2.17-1.95.79-.8,1.58-1.66,2.38-2.57.8-.92,1.46-1.75,2.01-2.51.38-.49.71-.8.98-.95.27-.15.47-.16.61-.03.14.12.2.33.19.62-.01.29-.13.62-.34.98-.19.3-.51.76-.95,1.36s-.98,1.27-1.6,2.01c-.62.73-1.29,1.5-2.02,2.29-.73.8-1.47,1.53-2.22,2.21-.75.68-1.5,1.28-2.24,1.8-.74.52-1.42.85-2.02,1-.86.22-1.58.2-2.14-.06-.57-.26-.92-.72-1.05-1.36-.14-.65-.04-1.49.3-2.53.34-1.04.98-2.24,1.93-3.6,1.14-1.6,1.97-2.77,2.5-3.52.53-.74.63-1.18.3-1.3-.27-.13-.8.1-1.6.7-.8.6-1.7,1.38-2.69,2.35-1,.97-2,2.04-3,3.21-1,1.18-1.82,2.27-2.47,3.3-.05.12-.11.2-.16.23l-1.05,1.67c-.33.45-.73.83-1.21,1.14-.48.3-.92.46-1.33.48l-1.26.07c-.41.02-.65-.11-.72-.4s.04-.64.34-1.07l8.1-12.88c.3-.45.68-.82,1.16-1.11.48-.29.92-.44,1.33-.46l1.26-.07c.41-.02.65.1.74.38.09.27-.02.62-.32,1.04l-1.45,2.3c1.05-.99,2.11-1.84,3.16-2.55s2.09-1.17,3.09-1.37Z"/>
    <path class="cls-2" d="M417.95,129.26c-.11.15-.37.52-.77,1.09-.41.58-.86,1.26-1.35,2.06-.5.8-1.01,1.63-1.55,2.48-.54.86-1,1.65-1.4,2.37-.51.9-.78,1.55-.81,1.94-.04.4.06.62.3.66.29.07.77-.14,1.43-.64.66-.5,1.38-1.15,2.17-1.95.79-.8,1.58-1.66,2.37-2.57.8-.92,1.48-1.75,2.05-2.51.35-.48.66-.8.93-.94s.47-.16.61-.03c.14.12.2.33.19.62-.01.29-.13.62-.34.98-.19.3-.5.76-.93,1.36s-.96,1.27-1.58,2c-.62.73-1.3,1.5-2.04,2.29s-1.5,1.54-2.26,2.22c-.77.68-1.51,1.28-2.24,1.8-.73.52-1.41.85-2.04,1-.69.18-1.26.2-1.7.07-.44-.14-.78-.39-1-.75-.22-.37-.34-.82-.36-1.36-.01-.54.08-1.13.28-1.78-.99,1.01-2.01,1.93-3.04,2.74-1.03.81-1.97,1.33-2.8,1.55-.86.22-1.53.21-2.01-.02s-.8-.63-.96-1.17c-.16-.54-.17-1.19-.04-1.94.14-.75.4-1.53.79-2.34.18-.36.58-1.04,1.18-2.05.6-1.01,1.32-2.17,2.15-3.48.83-1.31,1.72-2.71,2.66-4.2.94-1.49,1.84-2.91,2.7-4.27-1.97.19-3.69.36-5.15.49-1.46.14-2.43.22-2.89.24-.75.07-1.18-.1-1.29-.5-.11-.4-.02-.85.28-1.35.29-.5.74-.97,1.34-1.42.6-.46,1.24-.7,1.9-.73.7-.04,1.79-.1,3.27-.19,1.48-.09,3.15-.2,5-.33l1.74-2.63c.3-.42.69-.79,1.17-1.09.48-.3.92-.46,1.33-.49l1.26-.07c.41-.02.65.1.74.38.09.27-.02.62-.32,1.04-.06.06-.24.33-.55.79-.31.47-.7,1.05-1.15,1.74l1.65-.22c.58-.06.93.04,1.04.29.12.26.07.57-.15.95-.21.38-.55.74-1.01,1.1-.46.36-.98.6-1.56.72l-2.03.37c-.83,1.3-1.73,2.68-2.69,4.16-.96,1.48-1.86,2.88-2.7,4.21-.85,1.33-1.59,2.51-2.24,3.57-.64,1.05-1.08,1.79-1.32,2.21-.48.9-.73,1.55-.77,1.94-.04.4.05.62.25.66.29.07.77-.14,1.43-.64.66-.5,1.38-1.14,2.17-1.93.79-.79,1.57-1.63,2.35-2.55.78-.92,1.44-1.75,1.99-2.51.48-.78.93-1.46,1.33-2.04.41-.57.68-.97.81-1.18.3-.45.68-.82,1.16-1.11.48-.29.92-.44,1.33-.46l1.26-.07c.41-.02.65.1.74.38.09.27-.02.62-.32,1.04ZM422.94,122.05c.03.61-.15,1.14-.55,1.58-.4.44-.89.68-1.47.71s-1.1-.15-1.56-.55-.7-.9-.74-1.51c-.03-.58.16-1.09.57-1.54.41-.44.91-.68,1.49-.71.58-.03,1.09.15,1.54.55.44.4.68.89.71,1.47Z"/>
    <path class="cls-2" d="M419.92,132.6c1.27-1.38,2.49-2.48,3.67-3.3,1.18-.82,2.28-1.39,3.32-1.72,1.03-.33,1.96-.44,2.78-.32.82.12,1.51.39,2.05.83.3-.33.65-.6,1.05-.8.4-.2.77-.3,1.12-.32l1.26-.07c.41-.02.65.1.74.38.09.27-.02.62-.32,1.04-.08.09-.35.48-.79,1.16-.44.68-1.03,1.59-1.75,2.73-.73,1.15-1.57,2.49-2.52,4.04-.95,1.55-1.97,3.23-3.05,5.03-1.08,1.8-2.2,3.7-3.35,5.7-1.15,2-2.29,4.03-3.43,6.1-.21.42-.51.59-.91.53-.4-.07-.76-.27-1.1-.6s-.59-.76-.75-1.29c-.16-.53-.12-1.06.11-1.6.13-.33.46-.93,1-1.8.54-.87,1.19-1.9,1.96-3.07.77-1.18,1.62-2.43,2.55-3.76s1.85-2.62,2.74-3.86c-.5.55-1.05,1.14-1.67,1.77-.62.63-1.28,1.22-1.98,1.76-.7.55-1.4,1.01-2.11,1.38-.71.37-1.4.58-2.06.61-.81.04-1.45-.2-1.92-.73-.46-.53-.68-1.27-.64-2.22.04-.95.37-2.07,1-3.37.63-1.3,1.63-2.71,3.01-4.24ZM422.1,134.24c-.66.82-1.14,1.63-1.47,2.42-.32.79-.46,1.44-.42,1.94.04.51.27.79.7.86.42.06,1.07-.22,1.94-.85.67-.47,1.42-1.14,2.25-2,.83-.86,1.62-1.76,2.37-2.7.75-.94,1.43-1.83,2.04-2.66.61-.83,1.06-1.48,1.36-1.93-.69-.34-1.44-.4-2.26-.19-.82.22-1.63.6-2.43,1.13-.8.54-1.56,1.17-2.28,1.89-.72.72-1.32,1.42-1.81,2.08Z"/>
    <path class="cls-2" d="M447.24,127.23c.49.5.79,1.14.89,1.94.1.8,0,1.68-.3,2.66-.3.98-.77,1.99-1.41,3.04-.64,1.05-1.45,2.07-2.42,3.05-.94.98-1.92,1.81-2.95,2.49-1.03.68-2.01,1.18-2.96,1.51-.94.33-1.82.47-2.64.42-.82-.04-1.47-.32-1.96-.81-.52-.5-.83-1.14-.91-1.94-.09-.8.02-1.68.32-2.66.3-.98.76-1.99,1.39-3.04.63-1.05,1.43-2.07,2.39-3.05.94-1.01,1.92-1.85,2.94-2.54s2.02-1.18,2.98-1.51c.96-.33,1.84-.46,2.64-.4.8.06,1.47.34,1.99.83ZM443.24,135.13c.51-.75.94-1.49,1.28-2.21.34-.72.58-1.38.72-2,.14-.62.18-1.15.11-1.6-.07-.45-.24-.77-.51-.96-.3-.19-.68-.23-1.12-.12-.45.11-.93.36-1.45.73-.52.38-1.06.86-1.63,1.44-.57.58-1.11,1.25-1.62,2.01-.51.76-.93,1.49-1.26,2.21-.33.72-.56,1.38-.7,1.98-.14.6-.18,1.13-.11,1.58.07.45.24.77.51.96.3.19.67.23,1.12.12.45-.11.93-.35,1.45-.71.52-.36,1.05-.83,1.61-1.42.55-.58,1.08-1.25,1.6-2.01Z"/>
    <path class="cls-2" d="M279.96,172.77c1.24-1.38,2.45-2.47,3.63-3.29,1.18-.82,2.28-1.39,3.29-1.72,1.02-.33,1.94-.45,2.78-.34s1.53.37,2.07.81c.97-1.57,1.95-3.15,2.96-4.74,1.01-1.6,1.93-3.05,2.76-4.36.83-1.31,1.53-2.4,2.1-3.28.56-.88.89-1.39.97-1.54.33-.45.73-.83,1.21-1.13.48-.3.92-.46,1.33-.49l1.22-.06c.41-.02.65.11.74.4.09.29-.02.64-.31,1.07-.05.09-.41.64-1.07,1.65-.66,1.01-1.47,2.26-2.42,3.75-.96,1.49-2,3.14-3.12,4.93-1.13,1.79-2.2,3.5-3.22,5.13-1.02,1.63-1.92,3.07-2.7,4.34-.78,1.26-1.29,2.14-1.52,2.61-.5.9-.78,1.55-.81,1.94-.04.4.06.62.3.66.29.07.77-.14,1.43-.64.66-.5,1.38-1.15,2.17-1.95.79-.8,1.58-1.66,2.38-2.57.8-.92,1.46-1.75,2.01-2.51.38-.49.71-.8.98-.95.27-.15.47-.16.61-.03.14.12.2.33.19.62-.01.29-.13.62-.34.98-.19.3-.5.76-.93,1.36-.43.61-.96,1.27-1.58,2s-1.3,1.5-2.04,2.29c-.74.8-1.49,1.54-2.24,2.21-.75.68-1.5,1.28-2.24,1.8-.74.52-1.42.85-2.02,1-.75.18-1.36.2-1.83.03-.47-.16-.81-.46-1.01-.89-.2-.43-.28-.94-.26-1.54.03-.6.17-1.25.42-1.97-.5.55-1.04,1.11-1.64,1.68-.6.57-1.21,1.09-1.84,1.56-.63.47-1.27.87-1.92,1.19-.65.33-1.28.5-1.89.54-.81.04-1.46-.2-1.94-.73-.48-.53-.7-1.27-.66-2.21.04-.95.37-2.07,1-3.37.63-1.3,1.65-2.71,3.05-4.25ZM282.1,174.41c-.66.82-1.15,1.63-1.47,2.42-.32.79-.46,1.44-.42,1.94.04.51.27.79.7.86.42.06,1.07-.22,1.94-.85.67-.47,1.42-1.14,2.25-2,.83-.86,1.62-1.76,2.37-2.7.75-.94,1.44-1.83,2.07-2.66.62-.83,1.09-1.48,1.38-1.93-.72-.34-1.48-.4-2.3-.18-.82.22-1.63.6-2.43,1.13-.8.54-1.56,1.17-2.28,1.89-.72.72-1.32,1.42-1.81,2.08Z"/>
    <path class="cls-2" d="M309.67,170.5c-.4.66-.96,1.3-1.67,1.92-.71.62-1.53,1.19-2.47,1.7-.93.51-1.96.96-3.07,1.34s-2.27.64-3.45.79c-.14.74-.12,1.37.06,1.9.17.53.55.85,1.14.96.59.14,1.38-.01,2.38-.47,1-.46,2.07-1.1,3.22-1.92,1.15-.82,2.31-1.76,3.48-2.83,1.17-1.07,2.22-2.15,3.15-3.25.35-.46.68-.74.98-.84.3-.1.53-.11.68-.01.15.09.21.28.18.56-.03.28-.17.58-.41.92-.87,1.09-1.93,2.27-3.18,3.53-1.24,1.26-2.54,2.43-3.88,3.5-1.34,1.08-2.66,1.98-3.96,2.72-1.3.74-2.47,1.14-3.52,1.19-1.51.08-2.6-.24-3.28-.96-.68-.72-1.01-1.66-1-2.81.01-1.15.33-2.41.96-3.76.63-1.36,1.48-2.64,2.55-3.85,1.07-1.21,2.33-2.23,3.79-3.06,1.45-.83,3.02-1.3,4.71-1.38.67-.04,1.25.04,1.76.23.5.19.89.46,1.16.81.27.35.38.79.35,1.31-.03.53-.25,1.11-.65,1.74ZM304.33,168.69c-.48.2-.96.5-1.44.88-.47.39-.92.85-1.35,1.38-.42.53-.81,1.1-1.16,1.7-.35.6-.64,1.2-.87,1.79,1.3-.21,2.42-.54,3.36-.99.94-.44,1.7-.92,2.28-1.43.58-.51,1-1.03,1.25-1.55.25-.52.34-.96.28-1.3-.06-.35-.29-.58-.69-.71-.4-.12-.96-.05-1.67.22Z"/>
    <path class="cls-2" d="M313.31,169.17c.68-.97,1.64-1.75,2.89-2.34,1.25-.59,2.72-.93,4.4-1.02.81-.04,1.46.05,1.94.29.48.24.52.76.13,1.57-.24.48-.61.99-1.12,1.54-.51.55-1.09.96-1.75,1.23-.32.11-.66.19-1.03.25-.38.06-.71.07-1,.03-.29-.04-.5-.13-.63-.27-.12-.14-.09-.34.1-.62.11-.15.25-.33.41-.52.16-.2.31-.4.45-.61.13-.21.23-.4.3-.56.06-.16.05-.3-.04-.41-.41-.04-.9.09-1.47.38-.57.29-1,.69-1.29,1.2-.27.45-.3.84-.09,1.16.21.32.52.62.94.89.42.27.89.56,1.42.87.52.31.97.67,1.35,1.08.37.42.61.93.71,1.54.1.61-.05,1.36-.47,2.25-.34.72-.8,1.36-1.38,1.93-.58.57-1.23,1.04-1.93,1.41-.71.37-1.47.65-2.29.82s-1.64.25-2.46.24c-1.17-.03-2.02-.3-2.56-.83-.54-.52-.83-1.11-.88-1.77-.05-.65.09-1.29.42-1.92.33-.63.76-1.09,1.3-1.38.28-.16.65-.25,1.1-.28.45-.02.85,0,1.21.07.35.07.62.19.8.35.18.17.15.37-.1.62-.19.21-.41.48-.66.8-.25.32-.44.65-.58.99-.14.34-.21.65-.19.93s.18.46.51.56c.33.13.71.17,1.14.11.43-.05.86-.18,1.29-.4.43-.21.82-.49,1.18-.85.36-.35.63-.8.8-1.33.17-.53.14-.98-.12-1.35-.25-.36-.58-.7-.99-1.02-.41-.31-.85-.62-1.32-.93-.47-.31-.84-.67-1.1-1.08-.27-.41-.38-.9-.32-1.49.06-.59.38-1.3.98-2.15Z"/>
    <path class="cls-2" d="M324.34,170.42c1.24-1.38,2.45-2.47,3.63-3.29,1.18-.82,2.28-1.39,3.29-1.72,1.02-.33,1.94-.45,2.78-.34s1.53.37,2.07.81c.97-1.56,1.95-3.15,2.96-4.74,1.01-1.6,1.93-3.05,2.76-4.36s1.53-2.4,2.1-3.28c.56-.88.89-1.39.97-1.54.33-.45.73-.83,1.21-1.13.48-.3.92-.46,1.33-.49l1.22-.06c.41-.02.65.11.74.4.09.29-.02.64-.32,1.07-.05.09-.41.64-1.07,1.65-.66,1.01-1.47,2.26-2.42,3.75-.95,1.49-2,3.14-3.12,4.93s-2.2,3.5-3.22,5.13c-1.02,1.63-1.92,3.07-2.7,4.34s-1.28,2.14-1.52,2.61c-.5.9-.78,1.55-.81,1.94-.04.4.06.62.3.66.29.07.77-.14,1.43-.64.66-.5,1.38-1.15,2.17-1.95.79-.8,1.58-1.66,2.38-2.57.8-.92,1.46-1.75,2.01-2.51.38-.49.71-.8.98-.95.27-.15.47-.16.61-.03.14.12.2.33.19.62-.01.29-.13.62-.34.98-.19.3-.5.75-.93,1.36-.43.61-.96,1.27-1.58,2-.62.73-1.3,1.5-2.04,2.29-.74.8-1.49,1.54-2.24,2.21-.75.68-1.5,1.28-2.24,1.8-.75.52-1.42.86-2.02,1-.75.18-1.36.2-1.83.03s-.81-.46-1.01-.89c-.2-.43-.28-.94-.26-1.54.03-.6.17-1.25.42-1.97-.5.55-1.04,1.11-1.64,1.68-.6.57-1.21,1.09-1.84,1.56-.63.47-1.27.87-1.92,1.19-.65.33-1.28.5-1.89.54-.81.04-1.46-.2-1.94-.73-.48-.53-.7-1.27-.66-2.21.04-.95.37-2.07,1-3.37.63-1.3,1.65-2.71,3.05-4.25ZM326.48,172.06c-.66.82-1.14,1.62-1.47,2.41-.32.79-.46,1.44-.42,1.94.04.51.27.79.7.86.42.06,1.07-.22,1.94-.85.67-.47,1.42-1.14,2.25-2s1.62-1.76,2.37-2.7c.75-.94,1.44-1.83,2.06-2.66s1.09-1.48,1.38-1.93c-.72-.34-1.48-.4-2.3-.18-.82.22-1.63.6-2.43,1.13-.8.54-1.56,1.17-2.28,1.89-.72.72-1.32,1.42-1.81,2.08Z"/>
    <path class="cls-2" d="M354.05,168.15c-.4.66-.96,1.3-1.67,1.92-.71.62-1.53,1.19-2.47,1.7s-1.96.96-3.07,1.34c-1.12.38-2.27.64-3.45.79-.14.74-.12,1.37.06,1.9.17.53.55.85,1.14.96.59.14,1.38-.01,2.38-.47,1-.46,2.07-1.1,3.22-1.92,1.15-.82,2.31-1.76,3.48-2.83,1.17-1.07,2.21-2.15,3.15-3.25.35-.46.68-.74.98-.84.3-.1.52-.11.68-.01.15.09.21.28.18.56-.03.28-.17.58-.41.92-.87,1.09-1.93,2.27-3.18,3.53-1.24,1.26-2.54,2.43-3.88,3.5s-2.66,1.98-3.96,2.72c-1.3.74-2.47,1.14-3.52,1.19-1.51.08-2.6-.24-3.28-.96-.68-.72-1.01-1.66-1-2.81.01-1.15.33-2.4.96-3.76s1.48-2.64,2.55-3.85c1.07-1.21,2.33-2.23,3.79-3.06,1.46-.83,3.03-1.3,4.71-1.38.67-.04,1.25.04,1.76.24.5.19.89.46,1.16.81.27.35.38.79.35,1.31-.03.53-.25,1.11-.65,1.74ZM348.72,166.34c-.48.2-.96.5-1.44.88-.48.39-.92.85-1.35,1.38-.42.53-.81,1.1-1.16,1.7-.35.6-.64,1.2-.87,1.79,1.3-.21,2.42-.54,3.35-.99.94-.44,1.7-.92,2.28-1.43.58-.51,1-1.03,1.25-1.55.25-.52.34-.96.28-1.3-.06-.35-.29-.58-.69-.71-.4-.12-.96-.05-1.67.22Z"/>
  </g>
  <path class="cls-1" d="M370.93,163.87c-.52-.13-.94-.23-1.36-.34.26-.38.47-.82.79-1.15,1.14-1.15,2.33-2.26,3.48-3.41.82-.82,1.75-1.32,2.96-1.26.75.04.97.34.68,1.03-.08.2-.2.38-.31.57-3.36,5.85-6.74,11.69-10.08,17.56-.77,1.35-1.8,2.1-3.39,2.04-.86-.03-1.13-.39-.71-1.18.6-1.12,1.25-2.21,1.88-3.31,1.91-3.32,3.83-6.64,5.74-9.97.12-.2.22-.42.32-.6Z"/>
  <path class="cls-1" d="M405.3,160.91c-1.44.49-2.72.13-3.96-.6-1.76-1.03-2.13-.97-3.6.39-.35.32-.75.82-1.21.38-.16-.15.03-.91.29-1.18,1.05-1.12,2.12-2.23,3.31-3.19,1.08-.87,1.89-.77,3.02.06.52.38,1.01.81,1.54,1.18.72.51,1.51.59,2.28.12.62-.37,1.3-.72,1.79-1.24.62-.65,1.33-.74,2.13-.75.6,0,.71.3.49.78-.11.24-.29.45-.46.66-5.03,6.08-10.07,12.16-15.11,18.24-.96,1.17-2.13,1.89-3.7,1.79-.22-.01-.59-.08-.63-.2-.07-.21.02-.52.14-.74.17-.3.42-.56.65-.82,4.17-4.76,8.35-9.51,12.52-14.27.18-.2.34-.41.51-.62Z"/>
  <path class="cls-1" d="M418.91,168.9c-.77.27-1.55.63-2.37.81-2.35.52-4.45-.82-4.75-3.33-.22-1.81.31-3.45,1.16-4.99,1.39-2.5,3.47-4.25,6.1-5.32,1.41-.58,2.89-.82,4.42-.52,1.55.31,2.67,1.48,2.94,3.04.33,1.9-.07,3.7-.76,5.44-1.77,4.52-4.6,8.2-8.78,10.76-1.78,1.09-3.72,1.75-5.83,1.68-1.48-.05-2.75-.59-3.45-2-.62-1.22-.25-2.92.79-3.95.88-.86,2.6-1.09,3.76-.5.06.03.12.06.17.1.43.29.42.47,0,.77-.26.18-.52.39-.73.64-.52.63-.59,1.51-.21,2.11.37.58,1.18.84,1.98.66,1.11-.25,1.96-.93,2.73-1.71,1.11-1.12,2.02-2.41,2.83-3.68ZM417.54,167.39c.17-.03.33-.04.5-.08,1.51-.38,2.56-1.38,3.31-2.66.61-1.05,1.07-2.19,1.54-3.31.37-.87.66-1.78.62-2.75-.04-.93-.59-1.47-1.52-1.54-.85-.06-1.62.16-2.35.55-1.66.89-2.8,2.28-3.68,3.92-.64,1.18-1.05,2.42-.84,3.8.18,1.22,1.21,2.11,2.43,2.07Z"/>
  <path class="cls-1" d="M385.46,170.75c-.77.27-1.55.63-2.37.81-2.35.52-4.45-.82-4.75-3.33-.22-1.81.31-3.45,1.16-4.99,1.39-2.5,3.47-4.25,6.1-5.32,1.41-.58,2.89-.82,4.42-.52,1.55.31,2.67,1.48,2.94,3.04.33,1.9-.07,3.7-.76,5.44-1.77,4.52-4.6,8.2-8.78,10.76-1.78,1.09-3.72,1.75-5.83,1.68-1.48-.05-2.75-.59-3.45-2-.62-1.22-.25-2.92.79-3.95.88-.86,2.6-1.09,3.76-.5.06.03.12.06.17.1.43.29.42.47,0,.77-.26.18-.52.39-.73.64-.52.63-.59,1.51-.21,2.11.37.58,1.18.84,1.98.66,1.11-.25,1.96-.93,2.73-1.71,1.11-1.12,2.02-2.41,2.83-3.68ZM384.08,169.24c.17-.03.33-.04.5-.08,1.51-.38,2.56-1.38,3.31-2.66.61-1.05,1.07-2.19,1.54-3.31.37-.87.66-1.78.62-2.75-.04-.93-.59-1.47-1.52-1.54-.85-.06-1.62.16-2.35.55-1.66.89-2.8,2.28-3.68,3.92-.64,1.18-1.05,2.42-.84,3.8.18,1.22,1.21,2.11,2.43,2.07Z"/>
</svg>